<?xml version="1.0" encoding="UTF-8"?>
<svg id="Layer_1" xmlns="http://www.w3.org/2000/svg" version="1.1" viewBox="0 0 841.89 595.28">
  <!-- Generator: Adobe Illustrator 29.7.1, SVG Export Plug-In . SVG Version: 2.1.1 Build 8)  -->
  <defs>
    <style>
      .st0 {
        fill: #9f425f;
      }

      .st0, .st1, .st2, .st3 {
        stroke-miterlimit: 10;
      }

      .st0, .st1, .st3 {
        stroke: #231f20;
      }

      .st4 {
        fill: #231f20;
        font-family: MyriadPro-Regular, 'Myriad Pro';
        font-size: 94.36px;
      }

      .st1 {
        fill: #d57ab1;
      }

      .st2 {
        fill: none;
        stroke: #d57ab1;
      }

      .st3 {
        fill: #f9d3b4;
      }
    </style>
  </defs>
  <path class="st0" d="M425.03,160.18c-.82.24-1.63.5-2.44.77.23-1.53.48-3.06.76-4.57.53,1.29,1.09,2.56,1.68,3.8Z"/>
  <path class="st0" d="M508.45,230.15c0,8.25-1.25,16.18-3.58,23.56-.03.08-.05.17-.08.25-4.81,15.26-14.12,28.18-26.2,36.84-.06.05-.13.09-.19.14h-.01c-.22-.1-.42-.2-.63-.3,12.08-8.66,21.4-21.58,26.21-36.84,2.37-7.45,3.65-15.47,3.65-23.81,0-8.76-1.41-17.15-4.01-24.91-.45-1.41-.96-2.79-1.5-4.15-8.54-21.43-26.24-37.42-47.62-41.94,21.64,4.25,39.6,20.22,48.29,41.75.06.11.1.23.15.35.51,1.29.99,2.59,1.43,3.92,2.65,7.82,4.09,16.3,4.09,25.14Z"/>
  <path class="st0" d="M425.03,160.18c-.82.24-1.63.5-2.44.77.23-1.53.48-3.06.76-4.57.53,1.29,1.09,2.56,1.68,3.8Z"/>
  <path class="st0" d="M502.78,200.74c-.22.07-.45.13-.67.19-8.54-21.43-26.24-37.42-47.62-41.94,21.64,4.25,39.6,20.22,48.29,41.75Z"/>
  <path class="st0" d="M425.03,160.18c-.82.24-1.63.5-2.44.77.23-1.53.48-3.06.76-4.57.53,1.29,1.09,2.56,1.68,3.8Z"/>
  <path class="st0" d="M594.41,183.22c0,63.19-38.84,114.42-86.73,114.42-10.28,0-20.14-2.36-29.28-6.7.06-.05.13-.09.19-.14,12.08-8.66,21.39-21.58,26.2-36.84.03-.08.05-.17.08-.25,2.33-7.38,3.58-15.31,3.58-23.56,0-8.84-1.44-17.32-4.09-25.14,39.45-3.83,70.43-36.59,71.44-76.8,1.13-3.44,2.12-6.96,2.95-10.55,9.09,17.09,14.72,37.61,15.55,59.79.07,1.91.11,3.84.11,5.77Z"/>
  <path class="st0" d="M508.45,230.15c0,8.25-1.25,16.18-3.58,23.56-.3.04-.6.06-.9.09,2.37-7.45,3.65-15.47,3.65-23.81,0-8.76-1.41-17.15-4.01-24.91-.45-1.41-.96-2.79-1.5-4.15-8.54-21.43-26.24-37.42-47.62-41.94,21.64,4.25,39.6,20.22,48.29,41.75.06.11.1.23.15.35.51,1.29.99,2.59,1.43,3.92,2.65,7.82,4.09,16.3,4.09,25.14Z"/>
  <path class="st0" d="M508.45,230.15c0,8.25-1.25,16.18-3.58,23.56-.03.08-.05.17-.08.25-4.81,15.26-14.12,28.18-26.2,36.84-.06.05-.13.09-.19.14h-.01c-.22-.1-.42-.2-.63-.3,12.08-8.66,21.4-21.58,26.21-36.84,2.37-7.45,3.65-15.47,3.65-23.81,0-8.76-1.41-17.15-4.01-24.91-.45-1.41-.96-2.79-1.5-4.15-8.54-21.43-26.24-37.42-47.62-41.94,21.64,4.25,39.6,20.22,48.29,41.75.06.11.1.23.15.35.51,1.29.99,2.59,1.43,3.92,2.65,7.82,4.09,16.3,4.09,25.14Z"/>
  <path class="st1" d="M578.75,117.66c-.83,3.59-1.82,7.11-2.95,10.55-1.01,40.21-31.99,72.97-71.44,76.8-.44-1.33-.92-2.63-1.43-3.92-.05-.12-.09-.24-.15-.35-8.69-21.53-26.65-37.5-48.29-41.75-.17-.04-.34-.07-.51-.1-3.86-.78-7.84-1.19-11.9-1.19-5.9,0-11.61.86-17.05,2.48-.59-1.24-1.15-2.51-1.68-3.8,9.15-50.23,43.44-87.57,84.33-87.57,26.65,0,50.51,15.87,66.42,40.85,1.63,2.57,3.19,5.24,4.65,8Z"/>
  <path class="st0" d="M453.98,158.89c-3.6-.68-7.3-1.03-11.07-1.03-6.15,0-12.08.93-17.71,2.68-.05-.12-.11-.24-.17-.36,5.44-1.62,11.15-2.48,17.05-2.48,4.06,0,8.04.41,11.9,1.19Z"/>
  <path class="st0" d="M504.36,205.01c-.25.03-.5.05-.75.07-.45-1.41-.96-2.79-1.5-4.15-8.54-21.43-26.24-37.42-47.62-41.94,21.64,4.25,39.6,20.22,48.29,41.75.06.11.1.23.15.35.51,1.29.99,2.59,1.43,3.92Z"/>
  <ellipse class="st3" cx="437.91" cy="229.83" rx="70.54" ry="73.45"/>
  <text class="st4" transform="translate(398.6 263.47) scale(1.49 1)"><tspan x="0" y="0">€</tspan></text>
  <circle class="st2" cx="437.91" cy="229.83" r="61.02"/>
</svg>